<svg xmlns="http://www.w3.org/2000/svg" viewBox="0 0 289.49 7.28"><defs><style>.cls-1{fill:none;}.cls-2{fill:#131313;}</style></defs><g id="レイヤー_2" data-name="レイヤー 2"><g id="レイヤー_1-2" data-name="レイヤー 1"><path class="cls-1" d="M144.75,1.26a2.38,2.38,0,1,0,2.38,2.38A2.39,2.39,0,0,0,144.75,1.26Zm0,3.85a1.48,1.48,0,1,1,1.48-1.47A1.47,1.47,0,0,1,144.75,5.11Z"/><ellipse class="cls-2" cx="144.75" cy="3.64" rx="1.48" ry="1.47"/><path class="cls-2" d="M144.75,0a3.64,3.64,0,1,0,3.64,3.64A3.65,3.65,0,0,0,144.75,0Zm0,6a2.38,2.38,0,1,1,2.38-2.37A2.38,2.38,0,0,1,144.75,6Z"/><path class="cls-2" d="M14.47,3.48a3,3,0,0,1-1.82-.59,2.54,2.54,0,0,1-.91-1.24A3.7,3.7,0,0,1,10,3.11,4.87,4.87,0,0,1,7.16.27a7.19,7.19,0,0,1-4.34,3A12.2,12.2,0,0,1,0,3.63a11.66,11.66,0,0,1,2.82.43A7,7,0,0,1,7.16,7,5,5,0,0,1,10,4.15a3.86,3.86,0,0,1,1.79,1.48,2.47,2.47,0,0,1,.62-1,3,3,0,0,1,2.13-.83Z"/><polygon class="cls-2" points="11.44 3.01 11.44 3.64 11.44 4.27 142.36 4.27 142.36 3.64 142.36 3.01 11.44 3.01"/><path class="cls-2" d="M286.68,3.22A7.24,7.24,0,0,1,282.33.27a4.87,4.87,0,0,1-2.79,2.84,3.7,3.7,0,0,1-1.79-1.46,2.53,2.53,0,0,1-.9,1.24,3,3,0,0,1-1.83.59l0,.32a3,3,0,0,1,2.13.83,2.47,2.47,0,0,1,.62,1,3.86,3.86,0,0,1,1.79-1.48A5,5,0,0,1,282.33,7a7.09,7.09,0,0,1,4.35-2.94,11.55,11.55,0,0,1,2.81-.43A12.08,12.08,0,0,1,286.68,3.22Z"/><rect class="cls-2" x="147.13" y="3.01" width="130.93" height="1.26"/></g></g></svg>