<svg xmlns="http://www.w3.org/2000/svg" viewBox="0 0 262.04 16.32"><defs><style>.cls-1{fill:#131313;}</style></defs><g id="レイヤー_2" data-name="レイヤー 2"><g id="レイヤー_1-2" data-name="レイヤー 1"><path class="cls-1" d="M.06,1.74A6.28,6.28,0,0,0,2.11,3.1a29.65,29.65,0,0,0,8.26,2.38,97.44,97.44,0,0,0,17.82,1A259.51,259.51,0,0,0,58.93,3.83C71.62,2.07,84.3.54,97.14.52a.26.26,0,0,0,0-.52A238.88,238.88,0,0,0,65.08,2.44c-11,1.5-22,3-33.07,3.44a114.47,114.47,0,0,1-19.59-.61A35.44,35.44,0,0,1,3,3,7.05,7.05,0,0,1,.43,1.37c-.21-.26-.58.11-.37.37Z"/><path class="cls-1" d="M164.91.52a239.86,239.86,0,0,1,33.43,2.63,311.06,311.06,0,0,0,32.53,3.28,110.23,110.23,0,0,0,19.22-.71,34.66,34.66,0,0,0,9.24-2.34A7.42,7.42,0,0,0,262,1.74c.21-.26-.15-.63-.37-.37a6,6,0,0,1-2,1.31A29.91,29.91,0,0,1,251.3,5a99,99,0,0,1-18.21,1,267.19,267.19,0,0,1-31.57-2.88A261.06,261.06,0,0,0,164.91,0a.26.26,0,0,0,0,.52Z"/><path class="cls-1" d="M164.91.26C139.09.27,131,16.06,131,16.06S123,.27,97.14.26c25.82,0,33.88,6,33.88,6S139.08.27,164.91.26Z"/><path class="cls-1" d="M164.91,0c-12.08,0-25.23,3.8-32.77,13.88a14.74,14.74,0,0,0-1.34,2h.45a22,22,0,0,0-4.4-5.49A36.6,36.6,0,0,0,111.77,2,52.78,52.78,0,0,0,97.14,0V.52a109.11,109.11,0,0,1,22.6,2,39.66,39.66,0,0,1,9.91,3.23,9.6,9.6,0,0,1,1.24.73.24.24,0,0,0,.26,0,17.1,17.1,0,0,1,4.18-2,64.28,64.28,0,0,1,15.15-3.25A133.7,133.7,0,0,1,164.91.52a.26.26,0,0,0,0-.52,109.84,109.84,0,0,0-22.74,2,40.07,40.07,0,0,0-10,3.25c-.42.21-.86.58-1.3.75.17-.07.32.1.09-.09a4.15,4.15,0,0,0-.64-.38,34.29,34.29,0,0,0-8.62-3.1A104.26,104.26,0,0,0,97.14,0a.26.26,0,0,0,0,.52c11.92,0,25,3.74,32.42,13.76a16,16,0,0,1,1.24,1.91.26.26,0,0,0,.45,0,21,21,0,0,1,4.18-5.25,35.82,35.82,0,0,1,14.83-8.42,51.8,51.8,0,0,1,14.65-2A.26.26,0,0,0,164.91,0Z"/></g></g></svg>