<svg xmlns="http://www.w3.org/2000/svg" viewBox="0 0 149.84 44.97"><defs><style>.cls-1{fill:#231815;}</style></defs><g id="レイヤー_2" data-name="レイヤー 2"><g id="レイヤー_1-2" data-name="レイヤー 1"><path class="cls-1" d="M3.6,42a15.48,15.48,0,0,0-2,1.75c-.7.69-1.12,1-1.28,1a.16.16,0,0,1-.14-.09.79.79,0,0,1-.06-.38V25.9a.25.25,0,0,1,.07-.19.25.25,0,0,1,.17-.08.36.36,0,0,1,.28.18.93.93,0,0,1,.21.59v1.26A35.84,35.84,0,0,0,2,36q1.14,4.68,3,6.68a2.76,2.76,0,0,0,2.1,1,3,3,0,0,0,2.4-1.3,6.33,6.33,0,0,0,1-3.94,16.7,16.7,0,0,0-.94-5.33,97.9,97.9,0,0,0-5.45-12A54.91,54.91,0,0,1,.72,13.64,14.94,14.94,0,0,1,0,9.17,10.23,10.23,0,0,1,2,2.43,6,6,0,0,1,6.67,0a5,5,0,0,1,4,2.37,16,16,0,0,0,2.84-2C13.82.14,14,0,14.12,0a.17.17,0,0,1,.12.06,1,1,0,0,1,.06.41V16.38a.84.84,0,0,1-.15.52.28.28,0,0,1-.23.12.31.31,0,0,1-.27-.14,18.41,18.41,0,0,1-.35-2.11c-.79-6.08-1.86-10.1-3.18-12.07A3.25,3.25,0,0,0,7.46,1,2.45,2.45,0,0,0,5.53,2a4.57,4.57,0,0,0-.81,2.93c0,2.33,1.32,6.14,4,11.46l2.58,5.18a51.43,51.43,0,0,1,3.54,8.51,21.08,21.08,0,0,1,.88,5.64,10,10,0,0,1-2.14,6.8,6.45,6.45,0,0,1-5,2.46A5.61,5.61,0,0,1,3.6,42Z"/><path class="cls-1" d="M31.1,1.2H29.37a.33.33,0,0,1-.25-.1A.37.37,0,0,1,29,.85a.41.41,0,0,1,.1-.28.35.35,0,0,1,.25-.1h8l2.81,26.86L43.73.47h8a.43.43,0,0,1,.29.1.32.32,0,0,1,.12.25A.35.35,0,0,1,52,1.1a.43.43,0,0,1-.29.1H49.79V43.8H51.7a.12.12,0,0,1,.11.05.64.64,0,0,1,.09.34.45.45,0,0,1-.06.26.17.17,0,0,1-.14.08H42.06a.3.3,0,0,1-.22-.1.33.33,0,0,1-.1-.26.33.33,0,0,1,.1-.27.3.3,0,0,1,.22-.1h2V3.11l-5.16,40.4a2.83,2.83,0,0,1-.2.9.31.31,0,0,1-.26.12H36.55a.3.3,0,0,1-.26-.12,2.79,2.79,0,0,1-.18-.9l-4.22-40V40.66a5.3,5.3,0,0,0,.31,2.14,1.77,1.77,0,0,0,1.07.88l1.32.12c.1.06.14.17.14.35a.45.45,0,0,1-.07.31s-.17.07-.37.07H29.11a.23.23,0,0,1-.19-.09.33.33,0,0,1-.07-.23.29.29,0,0,1,.07-.22,2.26,2.26,0,0,1,.51-.25,2.26,2.26,0,0,0,1.23-.91,4.32,4.32,0,0,0,.44-2.17Z"/><path class="cls-1" d="M72.91,1.08h3.23L81.36,43.8h1.32c.22.13.32.25.32.37s-.1.23-.32.36H73.86a.29.29,0,0,1-.23-.1.36.36,0,0,1-.09-.26.37.37,0,0,1,.09-.27.29.29,0,0,1,.23-.1h1.41l-.76-8.35H69.13l-.61,4.71c0,.26,0,.52,0,.8A3.22,3.22,0,0,0,69,42.91a2,2,0,0,0,1.34.8l.47.15a.42.42,0,0,1,.11.29.37.37,0,0,1-.1.28.33.33,0,0,1-.25.1h-5a.33.33,0,0,1-.25-.1.41.41,0,0,1-.1-.28.46.46,0,0,1,.09-.29l.35-.12A1.87,1.87,0,0,0,67,43a8.09,8.09,0,0,0,1-3.4ZM72.15,12,69.23,34.69h5.15Z"/><path class="cls-1" d="M97.93,1.2H96.21C96,1.08,95.88,1,95.88.82S96,.59,96.2.47h9.22a7.62,7.62,0,0,1,5.94,2.92,11.78,11.78,0,0,1,2.51,8,13,13,0,0,1-1,5.16,9.28,9.28,0,0,1-2.86,3.73,13,13,0,0,1-3.54,1.7,13.43,13.43,0,0,1,3.72,1.52,7.82,7.82,0,0,1,2.64,3,10.11,10.11,0,0,1,.85,4.48V41.6a1.68,1.68,0,0,0,.24,1,.76.76,0,0,0,.61.29,1.3,1.3,0,0,0,1.06-.73,9.51,9.51,0,0,0,1-4.22,1.27,1.27,0,0,1,.16-.7.35.35,0,0,1,.28-.18.35.35,0,0,1,.29.2,1.82,1.82,0,0,1,.14.88,7.37,7.37,0,0,1-1.56,5A5,5,0,0,1,112,45a4.31,4.31,0,0,1-3.18-1.08,4.19,4.19,0,0,1-1.08-3.08V25.31a3,3,0,0,0-1-2.66,5.94,5.94,0,0,0-2.73-.38V43.8h1.43a.58.58,0,0,1,.37.11.33.33,0,0,1,.13.26.33.33,0,0,1-.13.25.58.58,0,0,1-.37.11H96.21a.44.44,0,0,1-.3-.1.31.31,0,0,1-.12-.26.32.32,0,0,1,.12-.27.44.44,0,0,1,.3-.1h1.72Zm6.07,0V21.5h1.42a2.14,2.14,0,0,0,1.66-.7,2.93,2.93,0,0,0,.64-2.05V3.54a2.68,2.68,0,0,0-.47-1.81,2.52,2.52,0,0,0-1.83-.5Z"/><path class="cls-1" d="M137.33,1.23h-.62a1.64,1.64,0,0,0-1.11.41,6.45,6.45,0,0,0-1.38,2.72,55,55,0,0,0-1.84,8.06,51.84,51.84,0,0,0-.77,6V19a.58.58,0,0,1-.11.37.35.35,0,0,1-.27.13.31.31,0,0,1-.26-.12.55.55,0,0,1-.15-.38V.47h19V19a.49.49,0,0,1-.12.34.37.37,0,0,1-.29.13.35.35,0,0,1-.27-.13A.48.48,0,0,1,149,19V17.88a41.14,41.14,0,0,0-.83-6.21A52.84,52.84,0,0,0,146.29,4a6.94,6.94,0,0,0-1.16-2.39,1.34,1.34,0,0,0-.86-.41h-.94V43.8h2.29c.21.13.32.25.32.37s-.11.23-.32.36H134.78a.3.3,0,0,1-.24-.1.35.35,0,0,1-.08-.26.36.36,0,0,1,.08-.27.3.3,0,0,1,.24-.1h2.55Z"/></g></g></svg>