<svg id="レイヤー_6" data-name="レイヤー 6" xmlns="http://www.w3.org/2000/svg" viewBox="0 0 501.38 80.54"><defs><style>.cls-1{fill:#000000;}</style></defs><path class="cls-1" d="M234.54,25.58a9.06,9.06,0,0,0-3.31-4.85,9.31,9.31,0,0,0-5.8-1.9,13.37,13.37,0,0,0-7.85,2.71A15.88,15.88,0,0,0,212,28.72q-.77-5.05-3.54-7.64A9.18,9.18,0,0,0,202,18.5a12.26,12.26,0,0,0-6.79,2.15,16.15,16.15,0,0,0-5.36,6l1-6.27L178,23l-6.47,41h12.39l3.76-23.86a17.08,17.08,0,0,1,2.85-7.19c1.49-2.15,3-3.22,4.47-3.22s2.51,1,3.26,2.89a12.88,12.88,0,0,1,.51,6.76L194.9,64h12.39c.28-2.47,3.71-24.21,3.91-24.78a15.5,15.5,0,0,1,2.67-6.31q2.19-3.18,4.55-3.18A3.43,3.43,0,0,1,221.78,32a12.09,12.09,0,0,1,.34,6.51l-4,25.44H230.5l3.87-24.53c.31-2,.56-4.35.73-7A21,21,0,0,0,234.54,25.58Z"/><path class="cls-1" d="M257.14,13.67c1-6.09,2.41-8.6,4.64-10.73A10.91,10.91,0,0,1,269.91,0h10.67l-1.75,11h-3.35a6.51,6.51,0,0,0-4.36,1.38q-1.64,1.37-2.29,5.54l-.36,2.33h8.9l-1.74,11h-8.9L261.58,64H249.2l5.14-32.65h-7.53l1.75-11h7.52Z"/><path class="cls-1" d="M29.53,18.34q-6.27,0-11.32,8.67l1.05-6.65L6.47,23,0,64H12.39l2.83-18q1-6.46,3.85-9.84t10.2-3.38l2.28-14.45h-2Z"/><path class="cls-1" d="M164.48,18.65a13,13,0,0,0-6.73,2.13,22.77,22.77,0,0,0-6.3,5.84L155.52.8l-12.8,2.6L133.17,64h12.39l3.25-20.6q1-6.65,3.35-10.16t4.71-3.51c1.41,0,2.47.85,3.19,2.56a13.26,13.26,0,0,1,.37,7L156.54,64h12.39l4-25.47q1.56-9.88-1-14.88T164.48,18.65Z"/><path class="cls-1" d="M58.12,18.65a13,13,0,0,0-6.73,2.13,22.5,22.5,0,0,0-6.3,5.84L49.16.8,36.36,3.4,26.81,64H39.2l3.24-20.6q1.05-6.65,3.36-10.16t4.7-3.51c1.41,0,2.48.85,3.19,2.56s.84,4,.37,7L50.17,64H62.56l4-25.47q1.55-9.88-1-14.88T58.12,18.65Z"/><path class="cls-1" d="M407.93,18.34A23.87,23.87,0,0,0,392.08,24q-6.76,5.67-8.93,19.41-1.77,11.18,3.23,16.75t14.07,5.59a23.62,23.62,0,0,0,16-5.78q6.69-5.77,8.63-18.08,2-12.51-3.3-18T407.93,18.34Zm.11,33.6c-1.81,2.61-3.89,3.92-6.21,3.92s-4.08-1.32-4.88-4a21.53,21.53,0,0,1-.32-9.6A24.35,24.35,0,0,1,400.31,32q2.65-3.78,6.06-3.78,3.57,0,4.91,4a21.34,21.34,0,0,1,.4,10A22.84,22.84,0,0,1,408,51.94Z"/><path class="cls-1" d="M453.37,20.35q-6.25,0-11.31,8.67l1.37-8.66L430.63,23l-6.47,41h12.39l2.52-16q1-6.47,3.85-9.84t10.2-3.38l2.28-14.45Z"/><path class="cls-1" d="M484.87,61.6a8.26,8.26,0,1,0,8.26-8.26A8.27,8.27,0,0,0,484.87,61.6Zm1.42,0a6.84,6.84,0,1,1,6.84,6.84A6.84,6.84,0,0,1,486.29,61.6Z"/><path class="cls-1" d="M375.81,31.37H384l1.74-11h-8.18l2.21-14L366.93,8.93l-1.76,11.4h-5.83l-1.77,11h5.86l-3,18.93c-1,6.09-.31,8.6,1.25,10.73s3.84,2.95,7.2,2.95h9.95l1.74-11H378A5,5,0,0,1,374,51.56c-.8-.92-1-2.76-.54-5.54Z"/><path class="cls-1" d="M127.53,31.37h8.18l1.74-11h-8.18l2.21-14L118.65,8.93l-1.77,11.4h-5.83l-1.76,11h5.85l-3,18.93c-1,6.09-.31,8.6,1.25,10.73S117.25,64,120.6,64h10l1.74-11h-2.64a5,5,0,0,1-3.92-1.37c-.8-.92-1-2.76-.53-5.54Z"/><polygon class="cls-1" points="109.14 20.29 96.75 20.29 84.39 48.06 81.06 20.29 67.76 20.29 75.56 64.55 67.8 80.54 80.19 80.54 109.14 20.29"/><polygon class="cls-1" points="498.94 20.29 486.55 20.29 474.19 48.06 470.86 20.29 457.56 20.29 465.35 64.55 457.6 80.54 469.99 80.54 498.94 20.29"/><path class="cls-1" d="M338.44,51.94q-2.73,3.91-6.21,3.92-3.68,0-4.88-4a21.39,21.39,0,0,1-.32-9.6A24.35,24.35,0,0,1,330.7,32q2.67-3.78,6.06-3.78,3.58,0,4.92,4a17.2,17.2,0,0,1,.76,5.2h13.45c.33-6.05-.91-10.59-3.76-13.59q-5.26-5.53-13.8-5.53A23.91,23.91,0,0,0,322.47,24q-6.77,5.67-8.93,19.41-1.76,11.18,3.23,16.75t14.08,5.59A23.58,23.58,0,0,0,346.8,60c3.46-3,5.95-7.28,7.51-12.87H340.85A20.12,20.12,0,0,1,338.44,51.94Z"/><path class="cls-1" d="M497.36,66.46h-1.78l-3.05-3.87H491v3.87h-1.56V56.94h4.83a2.77,2.77,0,0,1,3.05,2.83,2.73,2.73,0,0,1-3,2.82h0ZM494,58.28h-3.13v3H494c1.33,0,1.85-.75,1.85-1.49S495.35,58.28,494,58.28Z"/><path class="cls-1" d="M309.58,22.34q-4.14-4-12.58-4a21.07,21.07,0,0,0-12.35,4.18,20.79,20.79,0,0,0-7.21,10.6h12.5a10.88,10.88,0,0,1,2.29-3.69A6.61,6.61,0,0,1,296,27.65a5,5,0,0,1,3.7,1.09,3.37,3.37,0,0,1,.86,3.36l-.21,1.3L300,35.72a68.08,68.08,0,0,0-13,1,19,19,0,0,0-8.33,4.07,18.4,18.4,0,0,0-4.73,5.55,16.7,16.7,0,0,0-2.24,7.83,11.62,11.62,0,0,0,3,8.28,9.49,9.49,0,0,0,7,2.83,18.33,18.33,0,0,0,7.38-1.35,18.93,18.93,0,0,0,7.52-6.46l-1,6.5h12.23l4.81-30.49Q313.71,26.35,309.58,22.34Zm-12,26.49a11.74,11.74,0,0,1-4.66,6.3c-1.8,1-5.94,2.32-7.53-.35-2.39-4.05.5-7.63,2.59-8.84a14.57,14.57,0,0,1,7.51-1.78h3.17A30.09,30.09,0,0,1,297.6,48.83Z"/></svg>